<?xml version="1.0" encoding="UTF-8"?>
<svg id="Layer_2" fill="currentColor"
	xmlns="http://www.w3.org/2000/svg" viewBox="0 0 80.63671875 10.5302734375">
	<g id="Layer_1-2">
		<path d="M1.7265625,10.2900390625c-.01171875.1201171875-.107421875.228515625-.263671875.240234375-.947265625-.8759765625-1.462890625-2.4111328125-1.462890625-3.7783203125,0-1.87109375.7431640625-3.693359375,2.0029296875-4.96484375C3.0341796875.755859375,3.921875.359375,4.3896484375.1435546875c.1552734375.0126953125.263671875.14453125.2275390625.251953125-.7431640625.419921875-1.5107421875,1.1630859375-2.123046875,2.134765625-.88671875,1.4033203125-1.451171875,3.130859375-1.451171875,4.9296875,0,1.0556640625.228515625,2.123046875.68359375,2.830078125Z"/>
		<path d="M7.1142578125,4.5693359375c0,.4677734375-.3720703125.6240234375-.5517578125.6240234375-.107421875,0-.2041015625-.083984375-.275390625-.16796875-.48046875-.5517578125-.7080078125-.68359375-.9482421875-.68359375-.16796875,0-.3115234375.1552734375-.3115234375.3115234375,0,.1318359375.072265625.2998046875.3115234375.5400390625l.4560546875.4677734375c.419921875.431640625.611328125.8037109375.611328125,1.22265625,0,.4921875-.263671875.9599609375-.71875,1.33203125-.408203125.34765625-.923828125.52734375-1.5.52734375-.5517578125,0-1.1865234375-.3359375-1.1865234375-.923828125,0-.3837890625.275390625-.6953125.5869140625-.6953125.1318359375,0,.228515625.1201171875.3720703125.263671875.4677734375.4921875.7080078125.6240234375.947265625.6240234375.2158203125,0,.408203125-.16796875.408203125-.34765625,0-.16796875-.1083984375-.3603515625-.34765625-.6123046875l-.396484375-.419921875c-.37109375-.3837890625-.5869140625-.779296875-.5869140625-1.2109375,0-.515625.3115234375-.9951171875.6708984375-1.3076171875.3486328125-.287109375.7919921875-.5029296875,1.283203125-.5029296875.6484375,0,1.17578125.4189453125,1.17578125.958984375Z"/>
		<path d="M9.3583984375,1.5712890625c.14453125-.431640625.14453125-.5634765625-.0712890625-.68359375l-.3359375-.1923828125c-.0361328125-.095703125-.0361328125-.2041015625.0595703125-.2880859375.3837890625-.1552734375,1.595703125-.3837890625,2.1953125-.4072265625.083984375.01171875.107421875.0478515625.1318359375.1201171875-.1923828125.50390625-.34765625.9228515625-.576171875,1.55859375l-1.3310546875,3.7421875h.0244140625c.2998046875-.408203125.68359375-.8037109375,1.0673828125-1.103515625.52734375-.431640625,1.0556640625-.70703125,1.55859375-.70703125.5517578125,0,.912109375.4072265625.912109375,1.0673828125,0,.970703125-.6240234375,2.25390625-1.1875,3.021484375-.408203125.5517578125-1.091796875,1.0439453125-1.8232421875,1.0439453125-.3359375,0-.6474609375-.16796875-.6474609375-.4921875,0-.3232421875.275390625-.5390625.431640625-.5390625.095703125,0,.16796875.0478515625.240234375.1318359375.1552734375.1796875.2392578125.251953125.287109375.251953125.048828125,0,.1201171875-.095703125.228515625-.3603515625.3837890625-.8876953125.947265625-2.4462890625.947265625-3.0341796875,0-.19140625-.0595703125-.3232421875-.2158203125-.3232421875-.251953125,0-.767578125.4189453125-1.3916015625,1.2470703125-.6953125.9111328125-1.4384765625,2.6025390625-1.5830078125,2.90234375-.083984375.16796875-.3359375.2158203125-.599609375.2158203125-.2998046875,0-.767578125-.095703125-.6357421875-.4794921875l2.314453125-6.6923828125Z"/>
		<path d="M17.58984375,4.0537109375l.275390625-.5634765625c.072265625-.0478515625.1923828125-.083984375.32421875-.083984375.1435546875,0,.2998046875.0234375.443359375.0712890625.2041015625.060546875.3837890625.1923828125.4443359375.3125-.4560546875,1.126953125-.9833984375,2.4580078125-1.439453125,3.7900390625-.0478515625.1552734375-.0595703125.251953125.0244140625.251953125.16796875,0,.7548828125-.3603515625,1.126953125-.744140625.1201171875,0,.240234375.095703125.2275390625.263671875-.52734375.744140625-1.55859375,1.4033203125-2.3984375,1.4033203125-.3115234375,0-.4677734375-.275390625-.4677734375-.4677734375,0-.1318359375.060546875-.3115234375.1318359375-.50390625l.3603515625-.9228515625h-.0478515625c-.7080078125.935546875-1.859375,1.8828125-2.7353515625,1.8828125-.37109375,0-.7314453125-.34765625-.7314453125-.7431640625,0-.7080078125.7080078125-2.20703125,1.7998046875-3.1904296875.791015625-.7080078125,1.4990234375-1.0322265625,2.134765625-1.0322265625.119140625,0,.359375.1083984375.52734375.2763671875ZM16.7978515625,4.3056640625c-.1796875,0-.3955078125.107421875-.802734375.6240234375-.6005859375.7548828125-1.1875,1.9423828125-1.1875,2.6142578125v.107421875c.01171875.1201171875.0712890625.1923828125.16796875.1923828125.263671875,0,.9228515625-.7080078125,1.283203125-1.1875.431640625-.576171875.8994140625-1.4990234375,1.04296875-1.89453125-.1435546875-.3486328125-.3115234375-.4560546875-.50390625-.4560546875Z"/>
		<path d="M22.4384765625,4.2099609375c0,.1796875-.083984375.4677734375-.1923828125.7548828125l-.6591796875,1.775390625c-.228515625.611328125-.2763671875.8154296875-.2880859375.935546875,0,.095703125.0478515625.16796875.1318359375.16796875.15625,0,.3837890625-.14453125.6591796875-.431640625.912109375-.9599609375,1.2236328125-1.775390625,1.439453125-2.7587890625.2158203125-.947265625.66015625-1.04296875,1.0556640625-1.04296875.2998046875,0,.6240234375.1796875.6240234375.52734375,0,.275390625-.1201171875.5517578125-.3603515625.9951171875-.3115234375.587890625-.68359375,1.5234375-.68359375,2.1708984375,0,.2998046875.083984375.4921875.32421875.4921875.287109375,0,.767578125-.408203125,1.0908203125-.99609375.3359375-.611328125.50390625-1.4150390625.50390625-1.8701171875,0-.2041015625,0-.396484375-.0595703125-.6357421875.0361328125-.4326171875.34765625-.68359375.7548828125-.68359375.587890625,0,.6962890625.4912109375.6962890625.8994140625-.0126953125.802734375-.4560546875,1.798828125-1.439453125,2.841796875-.9111328125.9716796875-1.978515625,1.3916015625-2.470703125,1.3916015625-.359375,0-.7431640625-.3115234375-.7431640625-.7431640625,0-.251953125.1435546875-.66015625.2158203125-.8876953125h-.0361328125c-.1083984375.107421875-.431640625.4794921875-.6474609375.68359375-.48046875.431640625-1.2001953125.947265625-1.859375.947265625-.515625,0-.7197265625-.4794921875-.7197265625-.7080078125,0-.2392578125.060546875-.5029296875.2763671875-1.0791015625l.7314453125-1.943359375c.095703125-.263671875.083984375-.4189453125-.0361328125-.4189453125-.240234375,0-.7197265625.431640625-.9951171875.6953125-.1328125,0-.216796875-.095703125-.228515625-.1923828125.3125-.623046875,1.3193359375-1.486328125,2.3388671875-1.486328125.3837890625,0,.576171875.3349609375.576171875.599609375Z"/>
		<path d="M30.466796875,4.365234375l-.564453125,1.4755859375h.048828125c.6953125-.9716796875,1.630859375-2.23046875,2.8056640625-2.23046875.5400390625,0,.755859375.3837890625.755859375.6953125,0,.2880859375-.095703125.6953125-.240234375,1.0673828125-.2275390625.599609375-.52734375,1.294921875-.88671875,2.146484375-.072265625.16796875-.0478515625.263671875.0478515625.263671875.1796875,0,.755859375-.4677734375,1.0673828125-.8154296875.1318359375-.0234375.251953125.072265625.2392578125.228515625-.3349609375.599609375-1.3310546875,1.546875-2.5185546875,1.546875-.275390625,0-.515625-.251953125-.515625-.4677734375,0-.1796875.083984375-.419921875.1806640625-.6474609375.359375-.83984375.71875-1.6669921875,1.0185546875-2.5068359375.1083984375-.2880859375.15625-.443359375.15625-.5634765625,0-.095703125-.0478515625-.16796875-.15625-.16796875-.16796875,0-.4912109375.2275390625-.9111328125.767578125-.671875.86328125-1.3193359375,2.21875-1.859375,3.3701171875-.083984375.16796875-.3115234375.2158203125-.5751953125.2158203125-.2998046875,0-.767578125-.095703125-.6474609375-.4794921875l1.1513671875-3.2509765625c.083984375-.2392578125.095703125-.431640625-.0478515625-.431640625-.251953125,0-.744140625.3837890625-1.01953125.6484375-.1201171875,0-.2041015625-.0966796875-.2158203125-.1923828125.3115234375-.6240234375,1.3193359375-1.4267578125,2.2900390625-1.4267578125.5517578125,0,.50390625.4794921875.396484375.7548828125Z"/>
		<path d="M36.6455078125,1.4267578125c0,.9716796875-.9345703125,1.763671875-2.2666015625,2.0869140625-.16796875-.0595703125-.2158203125-.263671875-.1201171875-.4072265625.6357421875-.1796875,1.2001953125-.671875,1.2001953125-1.1513671875,0-.263671875-.14453125-.431640625-.3837890625-.5634765625-.14453125-.072265625-.228515625-.240234375-.228515625-.4443359375,0-.3955078125.3359375-.767578125.7802734375-.767578125.443359375,0,1.0185546875.3837890625,1.0185546875,1.2470703125Z"/>
		<path d="M39.4541015625,4.5693359375c0,.4677734375-.3720703125.6240234375-.5517578125.6240234375-.107421875,0-.2041015625-.083984375-.275390625-.16796875-.48046875-.5517578125-.7080078125-.68359375-.9482421875-.68359375-.16796875,0-.3115234375.1552734375-.3115234375.3115234375,0,.1318359375.072265625.2998046875.3115234375.5400390625l.4560546875.4677734375c.419921875.431640625.611328125.8037109375.611328125,1.22265625,0,.4921875-.263671875.9599609375-.71875,1.33203125-.408203125.34765625-.923828125.52734375-1.5.52734375-.5517578125,0-1.1865234375-.3359375-1.1865234375-.923828125,0-.3837890625.275390625-.6953125.5869140625-.6953125.1318359375,0,.228515625.1201171875.3720703125.263671875.4677734375.4921875.7080078125.6240234375.947265625.6240234375.2158203125,0,.408203125-.16796875.408203125-.34765625,0-.16796875-.1083984375-.3603515625-.34765625-.6123046875l-.396484375-.419921875c-.37109375-.3837890625-.5869140625-.779296875-.5869140625-1.2109375,0-.515625.3115234375-.9951171875.6708984375-1.3076171875.3486328125-.287109375.7919921875-.5029296875,1.283203125-.5029296875.6484375,0,1.17578125.4189453125,1.17578125.958984375Z"/>
		<path d="M45.490234375,4.2099609375c0,.1796875-.083984375.4677734375-.1923828125.7548828125l-.6591796875,1.775390625c-.1201171875.3359375-.1923828125.6357421875-.1923828125.767578125s.072265625.3359375.2763671875.3359375.671875-.263671875,1.115234375-.8876953125c.3359375-.4794921875.599609375-1.35546875.599609375-1.7392578125,0-.3232421875-.0234375-.68359375-.107421875-.875.0234375-.48046875.3115234375-.7314453125.7314453125-.7314453125.5869140625,0,.68359375.4912109375.68359375.8994140625,0,.9111328125-.9599609375,2.482421875-2.0869140625,3.3818359375-.935546875.755859375-1.4755859375.8515625-1.955078125.8515625-.515625,0-.767578125-.5400390625-.767578125-.8271484375,0-.228515625.0361328125-.5517578125.1796875-.9599609375l.7080078125-1.943359375c.083984375-.2158203125.107421875-.4189453125-.0244140625-.4189453125-.2392578125,0-.7197265625.431640625-.9951171875.6953125-.1201171875,0-.2275390625-.095703125-.240234375-.1923828125.3125-.623046875,1.3193359375-1.486328125,2.3505859375-1.486328125.3837890625,0,.576171875.3349609375.576171875.599609375Z"/>
		<path d="M52.5927734375,4.5693359375c0,1.2353515625-2.05078125,1.8115234375-3.0224609375,2.0625-.0478515625.14453125-.060546875.32421875-.060546875.576171875,0,.32421875.15625.6591796875.515625.6591796875.4326171875,0,1.0078125-.287109375,1.5595703125-.8388671875.1318359375,0,.251953125.1201171875.240234375.275390625-.576171875.8994140625-1.53515625,1.439453125-2.615234375,1.439453125-.86328125,0-1.283203125-.611328125-1.283203125-1.37890625,0-1.080078125.671875-2.3388671875,1.619140625-3.05859375.671875-.515625,1.3193359375-.6953125,1.8828125-.6953125.6962890625,0,1.1640625.431640625,1.1640625.958984375ZM50.4931640625,4.44921875c-.431640625.4677734375-.71875,1.2119140625-.8271484375,1.6552734375.419921875-.1201171875.7919921875-.32421875,1.1396484375-.68359375.2392578125-.251953125.419921875-.7080078125.431640625-1.0078125,0-.1318359375-.083984375-.275390625-.2275390625-.275390625-.15625,0-.3359375.107421875-.5166015625.3115234375Z"/>
		<path d="M57.6083984375,4.3291015625c0,.68359375-.4677734375,1.17578125-.791015625,1.17578125-.240234375,0-.2880859375-.240234375-.34765625-.5517578125-.0361328125-.2041015625-.0966796875-.275390625-.1923828125-.275390625-.2041015625,0-.515625.4912109375-.8271484375,1.04296875-.5400390625.9716796875-.8759765625,1.87109375-1.259765625,2.806640625-.0712890625.16796875-.3115234375.2158203125-.5751953125.2158203125-.2998046875,0-.779296875-.095703125-.66015625-.4794921875.34765625-1.103515625.7919921875-2.36328125,1.1279296875-3.39453125.0712890625-.2275390625.083984375-.3837890625-.0478515625-.3837890625-.2041015625,0-.66015625.34765625-.99609375.7314453125-.1435546875-.01171875-.2392578125-.1435546875-.2158203125-.275390625.240234375-.4794921875,1.0078125-1.3310546875,1.8828125-1.3310546875.6962890625,0,.7197265625.5390625.515625,1.1513671875l-.431640625,1.2705078125h.060546875c.3955078125-.70703125.70703125-1.22265625.9951171875-1.5947265625.3720703125-.50390625.744140625-.8271484375,1.17578125-.8271484375.34765625,0,.5869140625.2275390625.5869140625.71875Z"/>
		<path d="M61.2451171875,4.5693359375c0,.4677734375-.3720703125.6240234375-.5517578125.6240234375-.107421875,0-.2041015625-.083984375-.275390625-.16796875-.48046875-.5517578125-.7080078125-.68359375-.9482421875-.68359375-.16796875,0-.3115234375.1552734375-.3115234375.3115234375,0,.1318359375.072265625.2998046875.3115234375.5400390625l.4560546875.4677734375c.419921875.431640625.611328125.8037109375.611328125,1.22265625,0,.4921875-.263671875.9599609375-.71875,1.33203125-.408203125.34765625-.923828125.52734375-1.5.52734375-.5517578125,0-1.1865234375-.3359375-1.1865234375-.923828125,0-.3837890625.275390625-.6953125.5869140625-.6953125.1318359375,0,.228515625.1201171875.3720703125.263671875.4677734375.4921875.7080078125.6240234375.947265625.6240234375.2158203125,0,.408203125-.16796875.408203125-.34765625,0-.16796875-.1083984375-.3603515625-.34765625-.6123046875l-.396484375-.419921875c-.37109375-.3837890625-.5869140625-.779296875-.5869140625-1.2109375,0-.515625.3115234375-.9951171875.6708984375-1.3076171875.3486328125-.287109375.7919921875-.5029296875,1.283203125-.5029296875.6484375,0,1.17578125.4189453125,1.17578125.958984375Z"/>
		<path d="M63.189453125,7.603515625c-.0478515625.1083984375-.03515625.1796875.048828125.1796875.16796875,0,.8271484375-.4677734375,1.126953125-.7548828125.1435546875,0,.263671875.1318359375.2275390625.287109375-.4677734375.6240234375-1.53515625,1.427734375-2.5185546875,1.427734375-.3115234375,0-.5517578125-.3359375-.5517578125-.4794921875,0-.1318359375.0478515625-.2763671875.14453125-.515625l1.2470703125-2.986328125c.0361328125-.0966796875.0361328125-.16796875-.0244140625-.16796875-.203125,0-.875.5029296875-1.0673828125.68359375-.1435546875-.0244140625-.2392578125-.1806640625-.19140625-.2880859375.6474609375-.7919921875,1.775390625-1.37890625,2.41015625-1.37890625.2646484375,0,.5517578125.263671875.5517578125.52734375,0,.1201171875-.083984375.34765625-.1552734375.52734375l-1.248046875,2.9384765625ZM64.556640625.9833984375c.408203125,0,.671875.251953125.671875.7080078125,0,.52734375-.359375.970703125-.9111328125.970703125-.4443359375,0-.7080078125-.2998046875-.7080078125-.68359375,0-.52734375.396484375-.9951171875.947265625-.9951171875Z"/>
		<path d="M70.1005859375,5.361328125c0,.86328125-.419921875,1.87109375-1.1162109375,2.5419921875-.623046875.599609375-1.3427734375.83984375-2.0380859375.83984375-1.2236328125,0-1.7509765625-.8271484375-1.7392578125-1.6669921875.01171875-.923828125.455078125-2.0146484375,1.2587890625-2.7109375.6962890625-.599609375,1.33203125-.7548828125,1.87109375-.7548828125,1.283203125,0,1.763671875.88671875,1.763671875,1.7509765625ZM67.7734375,4.59375c-.431640625.5390625-1.1875,1.978515625-1.1875,3.1298828125,0,.2998046875.14453125.4921875.3720703125.4921875.2998046875,0,.5634765625-.2763671875.8876953125-.8037109375.3232421875-.5400390625.9111328125-1.859375.9111328125-2.7705078125,0-.251953125-.072265625-.50390625-.3359375-.50390625-.19140625,0-.3955078125.1435546875-.6474609375.4560546875Z"/>
		<path d="M73.4619140625,4.365234375l-.564453125,1.4755859375h.048828125c.6953125-.9716796875,1.630859375-2.23046875,2.8056640625-2.23046875.5400390625,0,.755859375.3837890625.755859375.6953125,0,.2880859375-.095703125.6953125-.240234375,1.0673828125-.2275390625.599609375-.52734375,1.294921875-.88671875,2.146484375-.072265625.16796875-.0478515625.263671875.0478515625.263671875.1796875,0,.7548828125-.4677734375,1.0673828125-.8154296875.1318359375-.0234375.251953125.072265625.2392578125.228515625-.3349609375.599609375-1.3310546875,1.546875-2.5185546875,1.546875-.275390625,0-.515625-.251953125-.515625-.4677734375,0-.1796875.083984375-.419921875.1796875-.6474609375.3603515625-.83984375.7197265625-1.6669921875,1.01953125-2.5068359375.1083984375-.2880859375.15625-.443359375.15625-.5634765625,0-.095703125-.0478515625-.16796875-.15625-.16796875-.16796875,0-.4912109375.2275390625-.9111328125.767578125-.671875.86328125-1.3193359375,2.21875-1.859375,3.3701171875-.083984375.16796875-.3115234375.2158203125-.5751953125.2158203125-.2998046875,0-.767578125-.095703125-.6474609375-.4794921875l1.1513671875-3.2509765625c.083984375-.2392578125.095703125-.431640625-.0478515625-.431640625-.251953125,0-.744140625.3837890625-1.01953125.6484375-.1201171875,0-.2041015625-.0966796875-.2158203125-.1923828125.3115234375-.6240234375,1.3193359375-1.4267578125,2.2900390625-1.4267578125.5517578125,0,.50390625.4794921875.396484375.7548828125Z"/>
		<path d="M78.9091796875.3837890625c.0126953125-.1201171875.1083984375-.2275390625.2646484375-.240234375.947265625.8759765625,1.462890625,2.4111328125,1.462890625,3.7783203125,0,1.87109375-.744140625,3.693359375-2.0029296875,4.96484375-1.03125,1.03125-1.9189453125,1.427734375-2.38671875,1.6435546875-.15625-.01171875-.263671875-.14453125-.2275390625-.251953125.7431640625-.419921875,1.5107421875-1.1630859375,2.1220703125-2.134765625.8876953125-1.4033203125,1.451171875-3.130859375,1.451171875-4.9296875,0-1.0546875-.2275390625-2.1220703125-.68359375-2.830078125Z"/>
	</g>
</svg>